G04 Layer_Color=16711935*
%FSLAX25Y25*%
%MOIN*%
G70*
G01*
G75*
%ADD22C,0.00020*%
%ADD23C,0.00394*%
D22*
X54787Y37000D02*
X54243Y37749D01*
X53363Y37463D01*
Y36537D01*
X54243Y36251D01*
X54787Y37000D01*
X54788Y32000D02*
X54244Y32748D01*
X53363Y32462D01*
Y31537D01*
X54244Y31251D01*
X54788Y32000D01*
Y27000D02*
X54244Y27749D01*
X53363Y27463D01*
Y26537D01*
X54244Y26251D01*
X54788Y27000D01*
Y22000D02*
X54244Y22749D01*
X53363Y22463D01*
Y21537D01*
X54244Y21251D01*
X54788Y22000D01*
Y17000D02*
X54244Y17749D01*
X53363Y17462D01*
Y16537D01*
X54244Y16251D01*
X54788Y17000D01*
X59788D02*
X59244Y17749D01*
X58363Y17462D01*
Y16537D01*
X59244Y16251D01*
X59788Y17000D01*
Y37000D02*
X59244Y37749D01*
X58363Y37462D01*
Y36537D01*
X59244Y36251D01*
X59788Y37000D01*
Y32000D02*
X59244Y32748D01*
X58363Y32462D01*
Y31537D01*
X59244Y31251D01*
X59788Y32000D01*
Y27000D02*
X59244Y27749D01*
X58363Y27463D01*
Y26537D01*
X59244Y26251D01*
X59788Y27000D01*
Y22000D02*
X59244Y22749D01*
X58363Y22463D01*
Y21537D01*
X59244Y21251D01*
X59788Y22000D01*
D23*
X45476Y5839D02*
X67524D01*
X45476D02*
Y48161D01*
X67524D01*
Y5839D02*
Y48161D01*
M02*
