G04 Layer_Color=65535*
%FSLAX25Y25*%
%MOIN*%
G70*
G01*
G75*
%ADD14C,0.01000*%
%ADD15C,0.00984*%
%ADD16C,0.00787*%
D14*
X8000Y5500D02*
Y11498D01*
X10999D01*
X11999Y10498D01*
Y8499D01*
X10999Y7499D01*
X8000D01*
X13998Y6500D02*
X14998Y5500D01*
X16997D01*
X17997Y6500D01*
Y10498D01*
X16997Y11498D01*
X14998D01*
X13998Y10498D01*
Y9499D01*
X14998Y8499D01*
X17997D01*
X96499Y10498D02*
X95499Y11498D01*
X93500D01*
X92500Y10498D01*
Y6500D01*
X93500Y5500D01*
X95499D01*
X96499Y6500D01*
Y8499D01*
X94499D01*
X98498Y5500D02*
Y11498D01*
X102497Y5500D01*
Y11498D01*
X104496D02*
Y5500D01*
X107495D01*
X108495Y6500D01*
Y10498D01*
X107495Y11498D01*
X104496D01*
X92500Y15500D02*
Y21498D01*
X95499D01*
X96499Y20498D01*
Y18499D01*
X95499Y17499D01*
X92500D01*
X98498Y20498D02*
X99498Y21498D01*
X101497D01*
X102497Y20498D01*
Y19499D01*
X101497Y18499D01*
X102497Y17499D01*
Y16500D01*
X101497Y15500D01*
X99498D01*
X98498Y16500D01*
Y17499D01*
X99498Y18499D01*
X98498Y19499D01*
Y20498D01*
X99498Y18499D02*
X101497D01*
X92500Y25500D02*
Y31498D01*
X95499D01*
X96499Y30498D01*
Y28499D01*
X95499Y27499D01*
X92500D01*
X102497Y31498D02*
X100497Y30498D01*
X98498Y28499D01*
Y26500D01*
X99498Y25500D01*
X101497D01*
X102497Y26500D01*
Y27499D01*
X101497Y28499D01*
X98498D01*
X92500Y35500D02*
Y41498D01*
X95499D01*
X96499Y40498D01*
Y38499D01*
X95499Y37499D01*
X92500D01*
X101497Y35500D02*
Y41498D01*
X98498Y38499D01*
X102497D01*
X96499Y51498D02*
X92500D01*
Y48499D01*
X94499Y49499D01*
X95499D01*
X96499Y48499D01*
Y46500D01*
X95499Y45500D01*
X93500D01*
X92500Y46500D01*
X98498Y51498D02*
Y47499D01*
X100497Y45500D01*
X102497Y47499D01*
Y51498D01*
X2000Y50498D02*
X3000Y51498D01*
X4999D01*
X5999Y50498D01*
Y49499D01*
X4999Y48499D01*
X3999D01*
X4999D01*
X5999Y47499D01*
Y46500D01*
X4999Y45500D01*
X3000D01*
X2000Y46500D01*
X7998Y51498D02*
Y47499D01*
X9997Y45500D01*
X11997Y47499D01*
Y51498D01*
X13996Y50498D02*
X14996Y51498D01*
X16995D01*
X17995Y50498D01*
Y49499D01*
X16995Y48499D01*
X15995D01*
X16995D01*
X17995Y47499D01*
Y46500D01*
X16995Y45500D01*
X14996D01*
X13996Y46500D01*
X8000Y35500D02*
Y41498D01*
X10999D01*
X11999Y40498D01*
Y38499D01*
X10999Y37499D01*
X8000D01*
X13998Y40498D02*
X14998Y41498D01*
X16997D01*
X17997Y40498D01*
Y39499D01*
X16997Y38499D01*
X15997D01*
X16997D01*
X17997Y37499D01*
Y36500D01*
X16997Y35500D01*
X14998D01*
X13998Y36500D01*
X8000Y25500D02*
Y31498D01*
X10999D01*
X11999Y30498D01*
Y28499D01*
X10999Y27499D01*
X8000D01*
X17997Y31498D02*
X13998D01*
Y28499D01*
X15997Y29499D01*
X16997D01*
X17997Y28499D01*
Y26500D01*
X16997Y25500D01*
X14998D01*
X13998Y26500D01*
X8000Y15500D02*
Y21498D01*
X10999D01*
X11999Y20498D01*
Y18499D01*
X10999Y17499D01*
X8000D01*
X13998Y21498D02*
X17997D01*
Y20498D01*
X13998Y16500D01*
Y15500D01*
D15*
X43409Y37000D02*
X42671Y37426D01*
Y36574D01*
X43409Y37000D01*
D16*
X21500Y3000D02*
X31500D01*
X21500D02*
Y53000D01*
X31500Y3000D02*
Y53000D01*
X21500D02*
X31500D01*
X79000D02*
X89000D01*
Y3000D02*
Y53000D01*
X79000Y3000D02*
Y53000D01*
Y3000D02*
X89000D01*
X67524Y5839D02*
Y48161D01*
X45476D02*
X67524D01*
X45476Y5839D02*
Y48161D01*
Y5839D02*
X67524D01*
M02*
