G04 Layer_Physical_Order=2*
G04 Layer_Color=16711680*
%FSLAX25Y25*%
%MOIN*%
G70*
G01*
G75*
%ADD10C,0.05905*%
%ADD11R,0.05905X0.05905*%
%ADD12R,0.03937X0.03937*%
%ADD13C,0.03937*%
%ADD14C,0.01000*%
D10*
X26500Y48000D02*
D03*
Y38000D02*
D03*
Y28000D02*
D03*
Y18000D02*
D03*
X84000Y8000D02*
D03*
Y18000D02*
D03*
Y28000D02*
D03*
Y38000D02*
D03*
D11*
X26500Y8000D02*
D03*
X84000Y48000D02*
D03*
D12*
X54000Y37000D02*
D03*
D13*
Y32000D02*
D03*
Y27000D02*
D03*
Y22000D02*
D03*
Y17000D02*
D03*
X59000Y37000D02*
D03*
Y32000D02*
D03*
Y27000D02*
D03*
Y22000D02*
D03*
Y17000D02*
D03*
D14*
X32500Y32000D02*
X54000D01*
X26500Y38000D02*
X32500Y32000D01*
X59000D02*
X78000D01*
X84000Y38000D01*
X30500Y22000D02*
X54000D01*
X26500Y18000D02*
X30500Y22000D01*
X63000Y18000D02*
X84000D01*
X59000Y22000D02*
X63000Y18000D01*
X45000Y8000D02*
X54000Y17000D01*
X26500Y8000D02*
X45000D01*
X59000Y17000D02*
X68000Y8000D01*
X84000D01*
X70000Y48000D02*
X84000D01*
X59000Y37000D02*
X70000Y48000D01*
X26500D02*
X43000D01*
X54000Y37000D01*
X40700Y27000D02*
X54000D01*
X39700Y28000D02*
X40700Y27000D01*
X26500Y28000D02*
X39700D01*
X72000D02*
X84000D01*
X71000Y27000D02*
X72000Y28000D01*
X59000Y27000D02*
X71000D01*
M02*
